<svg xmlns="http://www.w3.org/2000/svg" width="32" height="32" viewBox="0 0 32 32">
  <defs>
    <linearGradient id="ocean" x1="0" y1="0" x2="1" y2="1">
      <stop offset="0%" stop-color="#1a3a5c"/>
      <stop offset="100%" stop-color="#0a2040"/>
    </linearGradient>
    <linearGradient id="land" x1="0" y1="0" x2="1" y2="1">
      <stop offset="0%" stop-color="#D4880F"/>
      <stop offset="100%" stop-color="#b8720a"/>
    </linearGradient>
  </defs>
  <!-- Ocean -->
  <circle cx="16" cy="16" r="15" fill="url(#ocean)" stroke="#D4880F" stroke-width="0.8"/>
  <!-- Continents (simplified) -->
  <!-- Europe/Africa -->
  <path d="M14 6 L15 7 L14.5 9 L15.5 10 L15 12 L16 13 L15.5 15 L14 16 L14.5 18 L15 20 L16 22 L15 24 L14 23 L13 20 L12.5 17 L13 15 L12 13 L12.5 11 L13 9 L14 6Z" fill="url(#land)" opacity="0.9"/>
  <!-- Americas -->
  <path d="M8 7 L9 8 L9.5 10 L9 12 L8 13 L8.5 15 L9 17 L10 19 L9.5 21 L9 23 L8 24 L7.5 22 L7 19 L7.5 16 L7 14 L7.5 11 L8 7Z" fill="url(#land)" opacity="0.9"/>
  <!-- Asia -->
  <path d="M17 7 L19 6 L21 7 L23 8 L24 10 L23 12 L22 11 L20 12 L19 14 L20 16 L22 15 L23 17 L21 18 L19 17 L18 15 L17 13 L16.5 10 L17 7Z" fill="url(#land)" opacity="0.9"/>
  <!-- Australia -->
  <path d="M22 20 L24 19 L25 21 L24 23 L22 22 L22 20Z" fill="url(#land)" opacity="0.9"/>
  <!-- Subtle grid lines -->
  <ellipse cx="16" cy="16" rx="15" ry="8" fill="none" stroke="#D4880F" stroke-width="0.15" opacity="0.3"/>
  <line x1="16" y1="1" x2="16" y2="31" stroke="#D4880F" stroke-width="0.15" opacity="0.3"/>
  <!-- Glow -->
  <circle cx="16" cy="16" r="15" fill="none" stroke="#D4880F" stroke-width="0.3" opacity="0.4"/>
</svg>
